<svg width="154" height="40" viewBox="0 0 154 40" fill="none" xmlns="http://www.w3.org/2000/svg">
<path d="M17.0425 1.37994L28.176 7.80788C28.776 8.15429 29.1457 8.79452 29.1457 9.48738V22.3433C29.1457 23.0361 28.776 23.6763 28.176 24.0228L17.0591 30.4411C16.4502 30.7927 15.6987 30.7871 15.0951 30.4265L4.85822 24.3125C4.39844 24.0379 4.24833 23.4426 4.52293 22.9828C4.6082 22.84 4.72879 22.7215 4.87309 22.6388L15.8779 16.3289C15.9985 16.2598 16.0728 16.1315 16.0728 15.9924V9.62959C16.0728 9.41541 15.8992 9.24175 15.685 9.24175C15.6168 9.24175 15.5498 9.25974 15.4908 9.29387L4.45514 15.6766C3.99157 15.9447 3.39838 15.7863 3.13029 15.3227C3.04494 15.1752 3 15.0077 3 14.8372V9.48738C3 8.79452 3.36962 8.15429 3.96967 7.80788L15.1032 1.37994C15.7032 1.03351 16.4425 1.03351 17.0425 1.37994Z" fill="url(#paint0_linear_741_14670)"/>
<path d="M17.0425 1.37994L28.176 7.80788C28.776 8.15429 29.1457 8.79452 29.1457 9.48738V22.3433C29.1457 23.0361 28.776 23.6763 28.176 24.0228L17.0591 30.4411C16.4502 30.7927 15.6987 30.7871 15.0951 30.4265L5.14268 24.4824C4.59096 24.1529 4.41083 23.4385 4.74035 22.8868C4.84271 22.7154 4.9874 22.5733 5.16055 22.474L15.0982 16.776C15.701 16.4304 16.0728 15.7886 16.0728 15.0936V10.302C16.0728 9.87357 15.7255 9.52629 15.2971 9.52629C15.1607 9.52629 15.0268 9.56224 14.9087 9.6305L4.45514 15.6766C3.99157 15.9447 3.39838 15.7863 3.13029 15.3227C3.04494 15.1752 3 15.0077 3 14.8372V9.48738C3 8.79452 3.36962 8.15429 3.96967 7.80788L15.1032 1.37994C15.7032 1.03351 16.4425 1.03351 17.0425 1.37994Z" fill="url(#paint1_linear_741_14670)"/>
<path d="M16.6546 1.15589L28.5639 8.03169C28.9239 8.23956 29.1457 8.6237 29.1457 9.0394V22.791C29.1457 23.2067 28.9239 23.5909 28.5639 23.7987L16.6646 30.6688C16.2993 30.8797 15.8484 30.8764 15.4862 30.6601L4.85822 24.3124C4.39844 24.0378 4.24833 23.4425 4.52293 22.9827C4.6082 22.8399 4.72879 22.7215 4.87309 22.6387L15.1956 16.72C15.7382 16.4089 16.0728 15.8313 16.0728 15.2059V10.3019C16.0728 9.87349 15.7255 9.52617 15.2971 9.52617C15.1607 9.52617 15.0268 9.56212 14.9087 9.63038L4.45514 15.6765C3.99157 15.9446 3.39838 15.7862 3.13029 15.3226C3.04494 15.175 3 15.0076 3 14.8371V9.0394C3 8.6237 3.22176 8.23956 3.58179 8.03169L15.4911 1.15589C15.851 0.948036 16.2946 0.948036 16.6546 1.15589Z" fill="#5670FB"/>
<mask id="mask0_741_14670" style="mask-type:alpha" maskUnits="userSpaceOnUse" x="3" y="1" width="27" height="30">
<path fill-rule="evenodd" clip-rule="evenodd" d="M16.6546 1.15589L28.5639 8.03169C28.9239 8.23956 29.1457 8.6237 29.1457 9.0394V22.791C29.1457 23.2067 28.9239 23.5909 28.5639 23.7987L16.6646 30.6688C16.2993 30.8797 15.8484 30.8764 15.4862 30.6601L4.85822 24.3124C4.39844 24.0378 4.24833 23.4425 4.52293 22.9827C4.6082 22.8399 4.72879 22.7215 4.87309 22.6387L15.1956 16.72C15.7382 16.4089 16.0728 15.8313 16.0728 15.2059V10.3019C16.0728 9.87349 15.7255 9.52617 15.2971 9.52617C15.1607 9.52617 15.0268 9.56212 14.9087 9.63038L4.45514 15.6765C3.99157 15.9446 3.39838 15.7862 3.13029 15.3226C3.04494 15.175 3 15.0076 3 14.8371V9.0394C3 8.6237 3.22176 8.23956 3.58179 8.03169L15.4911 1.15589C15.851 0.948036 16.2946 0.948036 16.6546 1.15589Z" fill="white"/>
</mask>
<g mask="url(#mask0_741_14670)">
<path d="M28.6324 22.9396L15.3352 15.7052L3.38879 23.4323L16.2703 31.1912L28.6481 23.9529C28.9254 23.7907 29.0188 23.4343 28.8566 23.157C28.8031 23.0654 28.7256 22.9902 28.6324 22.9396Z" fill="#3655FF"/>
</g>
<mask id="mask1_741_14670" style="mask-type:alpha" maskUnits="userSpaceOnUse" x="3" y="1" width="27" height="30">
<path fill-rule="evenodd" clip-rule="evenodd" d="M16.6546 1.15589L28.5639 8.03169C28.9239 8.23956 29.1457 8.6237 29.1457 9.0394V22.791C29.1457 23.2067 28.9239 23.5909 28.5639 23.7987L16.6646 30.6688C16.2993 30.8797 15.8484 30.8764 15.4862 30.6601L4.85822 24.3124C4.39844 24.0378 4.24833 23.4425 4.52293 22.9827C4.6082 22.8399 4.72879 22.7215 4.87309 22.6387L15.1956 16.72C15.7382 16.4089 16.0728 15.8313 16.0728 15.2059V10.3019C16.0728 9.87349 15.7255 9.52617 15.2971 9.52617C15.1607 9.52617 15.0268 9.56212 14.9087 9.63038L4.45514 15.6765C3.99157 15.9446 3.39838 15.7862 3.13029 15.3226C3.04494 15.175 3 15.0076 3 14.8371V9.0394C3 8.6237 3.22176 8.23956 3.58179 8.03169L15.4911 1.15589C15.851 0.948036 16.2946 0.948036 16.6546 1.15589Z" fill="white"/>
</mask>
<g mask="url(#mask1_741_14670)">
<path d="M14.9111 1.50336L2.79199 8.48055L2.80348 17.314L15.7187 11.8534C15.934 11.7624 16.0739 11.5513 16.0739 11.3175V2.17563C16.0739 1.74721 15.7266 1.3999 15.2982 1.3999C15.1623 1.3999 15.0289 1.43558 14.9111 1.50336Z" fill="#3C59F3"/>
</g>
<path d="M46.66 21H49.76L44.62 7.66H41.06L35.9 21H39.02L39.86 18.7H45.82L46.66 21ZM42.84 10.12L45.04 16.24H40.62L42.84 10.12ZM62.9819 21H65.5419V14.02C65.5419 12.04 64.4819 11.1 62.7019 11.1C61.2219 11.1 59.9419 11.98 59.3819 12.86C59.0219 11.76 58.1219 11.1 56.7019 11.1C55.2219 11.1 53.9419 12.02 53.5419 12.6V11.34H51.0019V21H53.5419V14.5C53.9219 13.96 54.6619 13.36 55.5419 13.36C56.5819 13.36 56.9819 14 56.9819 14.9V21H59.5419V14.48C59.9019 13.96 60.6419 13.36 61.5419 13.36C62.5819 13.36 62.9819 14 62.9819 14.9V21ZM68.1031 21H70.6431V19.78C71.4031 20.72 72.4631 21.24 73.6231 21.24C76.0631 21.24 77.9031 19.4 77.9031 16.18C77.9031 13.02 76.0831 11.1 73.6231 11.1C72.4831 11.1 71.4031 11.6 70.6431 12.58V7.66H68.1031V21ZM70.6431 17.9V14.48C71.0631 13.84 72.0031 13.36 72.8231 13.36C74.3031 13.36 75.2831 14.5 75.2831 16.18C75.2831 17.86 74.3031 18.98 72.8231 18.98C72.0031 18.98 71.0631 18.52 70.6431 17.9ZM81.1519 9.92C81.9919 9.92 82.6719 9.24 82.6719 8.4C82.6719 7.56 81.9919 6.88 81.1519 6.88C80.3319 6.88 79.6319 7.56 79.6319 8.4C79.6319 9.24 80.3319 9.92 81.1519 9.92ZM79.8919 21H82.4319V11.34H79.8919V21ZM88.2605 21.24C89.3205 21.24 90.0005 20.96 90.3805 20.62L89.8405 18.7C89.7005 18.84 89.3405 18.98 88.9605 18.98C88.4005 18.98 88.0805 18.52 88.0805 17.92V13.56H90.0405V11.34H88.0805V8.7H85.5205V11.34H83.9205V13.56H85.5205V18.6C85.5205 20.32 86.4805 21.24 88.2605 21.24ZM93.1083 9.92C93.9483 9.92 94.6283 9.24 94.6283 8.4C94.6283 7.56 93.9483 6.88 93.1083 6.88C92.2883 6.88 91.5883 7.56 91.5883 8.4C91.5883 9.24 92.2883 9.92 93.1083 9.92ZM91.8483 21H94.3883V11.34H91.8483V21ZM101.457 21.24C104.657 21.24 106.577 18.92 106.577 16.16C106.577 13.42 104.657 11.1 101.457 11.1C98.2769 11.1 96.3569 13.42 96.3569 16.16C96.3569 18.92 98.2769 21.24 101.457 21.24ZM101.457 18.98C99.8769 18.98 98.9969 17.68 98.9969 16.16C98.9969 14.66 99.8769 13.36 101.457 13.36C103.037 13.36 103.937 14.66 103.937 16.16C103.937 17.68 103.037 18.98 101.457 18.98ZM115.051 21H117.591V14.18C117.591 12.3 116.571 11.1 114.451 11.1C112.871 11.1 111.691 11.86 111.071 12.6V11.34H108.531V21H111.071V14.5C111.491 13.92 112.271 13.36 113.271 13.36C114.351 13.36 115.051 13.82 115.051 15.16V21ZM120.243 21H127.483C130.023 21 131.363 19.4 131.363 17.4C131.363 15.72 130.223 14.34 128.803 14.12C130.063 13.86 131.103 12.74 131.103 11.06C131.103 9.28 129.803 7.66 127.263 7.66H120.243V21ZM123.083 13.02V10.08H126.643C127.603 10.08 128.203 10.72 128.203 11.54C128.203 12.4 127.603 13.02 126.643 13.02H123.083ZM123.083 18.58V15.44H126.743C127.863 15.44 128.463 16.16 128.463 17C128.463 17.96 127.823 18.58 126.743 18.58H123.083ZM137.995 21.24C141.195 21.24 143.115 18.92 143.115 16.16C143.115 13.42 141.195 11.1 137.995 11.1C134.815 11.1 132.895 13.42 132.895 16.16C132.895 18.92 134.815 21.24 137.995 21.24ZM137.995 18.98C136.415 18.98 135.535 17.68 135.535 16.16C135.535 14.66 136.415 13.36 137.995 13.36C139.575 13.36 140.475 14.66 140.475 16.16C140.475 17.68 139.575 18.98 137.995 18.98ZM150.561 21H153.401L149.941 16.04L153.181 11.34H150.341L148.361 14.32L146.361 11.34H143.521L146.741 16.04L143.321 21H146.141L148.361 17.74L150.561 21Z" fill="black"/>
<path d="M77.936 36H78.932V32.352H83.096V31.464H78.932V28.884H83.18V27.996H77.936V36ZM87.0717 36.144C88.8357 36.144 89.9397 34.776 89.9397 33.096C89.9397 31.416 88.8357 30.06 87.0717 30.06C85.3077 30.06 84.2037 31.416 84.2037 33.096C84.2037 34.776 85.3077 36.144 87.0717 36.144ZM87.0717 35.34C85.8357 35.34 85.1397 34.284 85.1397 33.096C85.1397 31.92 85.8357 30.864 87.0717 30.864C88.3077 30.864 88.9917 31.92 88.9917 33.096C88.9917 34.284 88.3077 35.34 87.0717 35.34ZM91.4488 36H92.3488V31.896C92.6128 31.428 93.3688 30.972 93.9208 30.972C94.0648 30.972 94.1728 30.984 94.2808 31.008V30.084C93.4888 30.084 92.8168 30.528 92.3488 31.14V30.204H91.4488V36ZM98.6235 36H103.868V35.112H99.6195V32.352H103.784V31.464H99.6195V28.884H103.868V27.996H98.6235V36ZM112.458 36H113.358V31.812C113.358 30.648 112.794 30.06 111.738 30.06C110.898 30.06 110.118 30.612 109.794 31.14C109.626 30.54 109.122 30.06 108.234 30.06C107.382 30.06 106.602 30.672 106.362 31.044V30.204H105.462V36H106.362V31.764C106.674 31.296 107.298 30.864 107.886 30.864C108.642 30.864 108.954 31.332 108.954 32.064V36H109.854V31.752C110.154 31.296 110.79 30.864 111.39 30.864C112.134 30.864 112.458 31.332 112.458 32.064V36ZM116.095 38.208V35.124C116.563 35.772 117.259 36.144 118.051 36.144C119.575 36.144 120.631 34.968 120.631 33.096C120.631 31.212 119.575 30.06 118.051 30.06C117.235 30.06 116.515 30.48 116.095 31.068V30.204H115.195V38.208H116.095ZM119.683 33.096C119.683 34.38 118.987 35.34 117.823 35.34C117.115 35.34 116.407 34.908 116.095 34.404V31.788C116.407 31.284 117.115 30.864 117.823 30.864C118.987 30.864 119.683 31.812 119.683 33.096ZM122.128 36H123.028V27.996H122.128V36ZM127.397 36.144C129.161 36.144 130.265 34.776 130.265 33.096C130.265 31.416 129.161 30.06 127.397 30.06C125.633 30.06 124.529 31.416 124.529 33.096C124.529 34.776 125.633 36.144 127.397 36.144ZM127.397 35.34C126.161 35.34 125.465 34.284 125.465 33.096C125.465 31.92 126.161 30.864 127.397 30.864C128.633 30.864 129.317 31.92 129.317 33.096C129.317 34.284 128.633 35.34 127.397 35.34ZM131.594 37.452L131.45 38.268C131.618 38.316 131.918 38.352 132.11 38.352C132.878 38.34 133.466 38.016 133.814 37.176L136.718 30.204H135.734L133.814 34.956L131.882 30.204H130.91L133.334 36.06L132.95 36.936C132.746 37.416 132.482 37.548 132.086 37.548C131.942 37.548 131.726 37.512 131.594 37.452ZM137.363 33.096C137.363 34.908 138.599 36.144 140.315 36.144C141.263 36.144 142.043 35.832 142.619 35.256L142.187 34.668C141.731 35.136 141.059 35.4 140.399 35.4C139.151 35.4 138.383 34.488 138.311 33.396H143.003V33.168C143.003 31.428 141.971 30.06 140.219 30.06C138.563 30.06 137.363 31.416 137.363 33.096ZM140.207 30.804C141.527 30.804 142.103 31.872 142.115 32.736H138.311C138.359 31.848 138.971 30.804 140.207 30.804ZM144.503 36H145.403V31.896C145.667 31.428 146.423 30.972 146.975 30.972C147.119 30.972 147.227 30.984 147.335 31.008V30.084C146.543 30.084 145.871 30.528 145.403 31.14V30.204H144.503V36ZM148.002 35.232C148.59 35.856 149.394 36.144 150.342 36.144C151.842 36.144 152.622 35.364 152.622 34.392C152.622 33.108 151.458 32.82 150.45 32.592C149.694 32.412 149.034 32.232 149.034 31.668C149.034 31.152 149.526 30.792 150.318 30.792C151.062 30.792 151.698 31.104 152.046 31.524L152.466 30.9C151.998 30.432 151.302 30.06 150.318 30.06C148.938 30.06 148.158 30.828 148.158 31.728C148.158 32.928 149.274 33.192 150.258 33.42C151.038 33.612 151.746 33.816 151.746 34.452C151.746 35.016 151.266 35.412 150.378 35.412C149.586 35.412 148.854 35.028 148.47 34.584L148.002 35.232Z" fill="black"/>
<defs>
<linearGradient id="paint0_linear_741_14670" x1="31.4394" y1="30.7009" x2="31.4394" y2="-4.06999" gradientUnits="userSpaceOnUse">
<stop stop-color="#0169E1"/>
<stop offset="1" stop-color="#0F8EF1"/>
</linearGradient>
<linearGradient id="paint1_linear_741_14670" x1="31.4394" y1="30.7009" x2="31.4394" y2="-4.06999" gradientUnits="userSpaceOnUse">
<stop stop-color="#0169E1"/>
<stop offset="1" stop-color="#0F8EF1"/>
</linearGradient>
</defs>
</svg>
